<?xml version="1.0" encoding="UTF-8" standalone="no"?>
<!-- Created with Inkscape (http://www.inkscape.org/) -->

<svg
   xmlns:dc="http://purl.org/dc/elements/1.1/"
   xmlns:cc="http://creativecommons.org/ns#"
   xmlns:rdf="http://www.w3.org/1999/02/22-rdf-syntax-ns#"
   xmlns:svg="http://www.w3.org/2000/svg"
   xmlns="http://www.w3.org/2000/svg"
   xmlns:sodipodi="http://sodipodi.sourceforge.net/DTD/sodipodi-0.dtd"
   xmlns:inkscape="http://www.inkscape.org/namespaces/inkscape"
   width="714.85529"
   height="914.32318"
   id="svg2"
   version="1.1"
   inkscape:version="0.48.2 r9819"
   sodipodi:docname="New document 1">
  <defs
     id="defs4">
    <inkscape:path-effect
       effect="skeletal"
       id="path-effect3930"
       is_visible="true"
       pattern="M 0,5 C 0,2.24 2.24,0 5,0 7.76,0 10,2.24 10,5 10,7.76 7.76,10 5,10 2.24,10 0,7.76 0,5 z"
       copytype="single_stretched"
       prop_scale="1"
       scale_y_rel="false"
       spacing="0"
       normal_offset="0"
       tang_offset="0"
       prop_units="false"
       vertical_pattern="false"
       fuse_tolerance="0" />
    <inkscape:path-effect
       effect="spiro"
       id="path-effect3928"
       is_visible="true" />
    <filter
       id="filter4103"
       inkscape:label="Drop shadow"
       width="1.5"
       height="1.5"
       x="-0.25"
       y="-0.25"
       color-interpolation-filters="sRGB">
      <feGaussianBlur
         id="feGaussianBlur4105"
         in="SourceAlpha"
         stdDeviation="7"
         result="blur" />
      <feColorMatrix
         id="feColorMatrix4107"
         result="bluralpha"
         type="matrix"
         values="1 0 0 0 0 0 1 0 0 0 0 0 1 0 0 0 0 0 0.489 0 " />
      <feOffset
         id="feOffset4109"
         in="bluralpha"
         dx="4.7"
         dy="11"
         result="offsetBlur" />
      <feMerge
         id="feMerge4111">
        <feMergeNode
           id="feMergeNode4113"
           in="offsetBlur" />
        <feMergeNode
           id="feMergeNode4115"
           in="SourceGraphic" />
      </feMerge>
    </filter>
  </defs>
  <sodipodi:namedview
     id="base"
     pagecolor="#ffffff"
     bordercolor="#666666"
     borderopacity="1.0"
     inkscape:pageopacity="0.0"
     inkscape:pageshadow="2"
     inkscape:zoom="0.50457914"
     inkscape:cx="348.35974"
     inkscape:cy="508.38415"
     inkscape:document-units="px"
     inkscape:current-layer="layer1"
     showgrid="false"
     inkscape:window-width="1280"
     inkscape:window-height="750"
     inkscape:window-x="-8"
     inkscape:window-y="-8"
     inkscape:window-maximized="1"
     fit-margin-top="0"
     fit-margin-left="0"
     fit-margin-right="0"
     fit-margin-bottom="0"
     units="in" />
  <metadata
     id="metadata7">
    <rdf:RDF>
      <cc:Work
         rdf:about="">
        <dc:format>image/svg+xml</dc:format>
        <dc:type
           rdf:resource="http://purl.org/dc/dcmitype/StillImage" />
        <dc:title></dc:title>
      </cc:Work>
    </rdf:RDF>
  </metadata>
  <g
     inkscape:label="Layer 1"
     inkscape:groupmode="layer"
     id="layer1"
     transform="translate(-23.6875,-120.24176)">
    <path
       style="fill:#ffffff;stroke:#000000;stroke-opacity:1"
       d="m 300.96891,605.96638 -10.75286,6.23256 c -17.6113,10.20988 -29.9428,19.09904 -38.42266,27.60131 l -8.01329,8.01328 -14.99922,-2.94505 c -19.02531,-3.68097 -64.98922,-3.69989 -85.68048,-0.0685 l -15.8211,2.73958 -7.19141,-7.53385 c -6.39811,-6.76737 -44.473005,-33.21746 -47.805745,-33.21746 -0.73359,0 0.0809,6.65719 1.78073,14.79375 3.26289,15.61846 2.54343,33.83075 -1.36979,35.13517 -1.61256,0.5375 -1.57986,1.97668 0.13698,4.72578 2.05576,3.29182 0.73467,6.74393 -7.876303,20.13594 -11.810346,18.36775 -24.658381,44.21046 -34.244798,69.106 -3.606388,9.36568 -6.506512,17.30394 -6.506512,17.60183 0,0.29789 2.867468,2.02444 6.369533,3.83542 7.272674,3.76085 13.355471,9.33805 13.355471,12.25963 0,1.09483 -3.945001,4.04668 -8.766668,6.50652 -10.018636,5.11112 -11.042693,7.72805 -3.629949,9.58854 2.849759,0.71525 16.570756,8.75402 30.47787,17.87578 l 25.272666,16.57449 -10.68438,10.06797 c -11.408703,10.67151 -13.539661,15.02503 -6.36953,13.15 2.41083,-0.63046 4.38333,-0.894 4.38333,-0.61641 0,0.27762 -3.5011,8.50669 -7.73932,18.28672 -15.936799,36.77543 -19.641922,66.31284 -13.081517,103.55627 1.804816,10.24605 3.285857,25.70235 3.2875,34.38175 0.0022,12.715 0.745079,16.2128 3.835418,18.0128 5.033097,2.9315 245.773524,3.1284 250.397964,0.2053 2.42927,-1.5354 3.39332,-6.7841 3.69844,-20.2044 0.22708,-9.9888 1.95302,-25.42669 3.83542,-34.24478 1.88238,-8.81806 3.42448,-22.68425 3.42448,-30.8888 0,-17.63271 -7.67958,-49.58338 -17.32787,-72.25653 -3.74665,-8.80454 -6.78047,-16.34782 -6.78047,-16.71146 0,-0.36364 2.04117,-0.11835 4.5888,0.54792 4.09803,1.07166 4.39587,0.70311 2.26016,-3.2875 -1.32771,-2.48086 -6.43191,-7.88659 -11.30078,-12.05417 l -8.83516,-7.60235 22.80703,-15.41016 c 12.54447,-8.46513 26.38774,-16.64016 30.75183,-18.21823 4.36407,-1.57806 7.9448,-3.65004 7.9448,-4.5888 0,-0.93878 -3.945,-3.70422 -8.76667,-6.16406 -4.82167,-2.45984 -8.76667,-5.46258 -8.76667,-6.6435 0,-3.2548 8.25097,-10.84471 14.31433,-13.15 l 5.34218,-2.05469 -4.52031,-12.67057 c -7.26299,-20.05336 -29.88086,-66.00718 -38.01172,-77.32475 -5.54146,-7.71331 -7.36832,-12.45698 -7.19141,-18.69766 0.13018,-4.59569 -0.70804,-8.7059 -1.91771,-9.10912 -2.21188,-0.73719 -1.03633,-19.09593 2.39713,-36.64183 z M 186.38582,771.71121 c 4.23586,0 6.44059,-0.0699 8.15026,0.13698 1.70968,0.20689 2.90504,0.77714 4.24636,1.64375 0.6257,0.41446 0.89751,1.2903 0.6164,1.9862 -2.56462,6.75123 -7.53407,11.18745 -10.13646,13.83489 -0.0219,0.0272 -0.0451,0.0489 -0.0684,0.0684 l 5.54766,2.32865 c 10.04378,4.24975 14.31895,6.51747 22.73855,14.10886 10.33542,10.42707 4.8719,33.01928 -1.50677,6.23255 -6.54169,-7.5437 -7.89967,-6.92019 -19.38256,-12.73906 l -10.95833,-6.43803 -9.31459,5.34219 c -9.76554,5.66665 -16.7952,7.57793 -21.09479,14.04037 -13.36888,33.34893 -6.17438,-6.2383 0.75338,-7.60235 3.96232,-3.56441 10.72613,-5.76014 18.4237,-10.88984 4.42866,-2.95126 6.50215,-3.91081 7.19141,-4.38334 -1.21337,-1.13637 -2.25604,-2.60306 -3.21901,-4.17786 -1.30889,-2.14047 -2.42184,-4.49879 -3.21901,-6.36953 -0.39858,-0.93538 -0.73351,-1.76388 -0.95886,-2.39714 -0.11265,-0.31663 -0.20601,-0.52148 -0.27396,-0.75338 -0.0679,-0.2319 -0.1567,-0.19506 -0.13697,-0.89037 0.0252,-0.91316 0.60047,-1.40779 0.95885,-1.64375 0.35838,-0.23595 0.66638,-0.36305 1.02734,-0.47943 0.72192,-0.23251 1.62401,-0.40414 2.6711,-0.54791 2.0942,-0.28755 4.86975,-0.41094 7.94479,-0.41094 z m 70.61277,107.32319 c 0.32187,-0.25355 0.85519,0.38602 1.71224,1.71224 1.16851,1.80813 2.10473,6.62515 2.12318,10.75287 l 0.0684,7.53386 -5.06823,-4.79428 c -6.12593,-5.75501 -10.31291,-6.08915 -10.34193,-0.89036 -0.0377,6.76859 -10.54487,26.69122 -21.30026,40.40886 l -10.41042,13.35547 -0.61641,-10.75286 c -1.20693,-22.59815 -2.16887,-22.88714 -11.50625,-3.69844 -5.71385,11.7422 -12.70237,21.67451 -20.95781,29.92995 -6.80136,6.80134 -12.99337,12.33131 -13.76641,12.32813 -0.77303,-0.002 -1.4851,-6.66037 -1.64375,-14.79375 -0.35996,-18.45073 -10.06469,-46.67241 -12.94454,-37.66928 -0.94053,2.9404 -2.28551,10.83505 -3.01354,17.46484 l -1.36979,12.05417 -7.53386,-13.15 c -4.15708,-7.20933 -9.58961,-18.04441 -12.05417,-24.10834 -2.46455,-6.0639 -5.43807,-11.465 -6.64349,-11.98568 -1.20541,-0.52067 -4.28328,2.82298 -6.84896,7.39688 -2.56565,4.57392 -5.21415,7.46407 -5.82161,6.43802 -3.2824,-5.54399 -3.47809,-16.03916 -0.54792,-24.86172 l 3.21901,-9.8625 -1.16432,10.41042 c -1.27805,11.26346 0.56893,12.89075 6.78047,6.02708 5.4128,-5.98108 9.08691,-5.54077 10.82136,1.36979 0.79969,3.18627 4.47825,12.30908 8.15026,20.27292 l 6.64349,14.5198 3.69844,-10.95834 c 7.19002,-21.25481 7.68529,-21.24576 15.47865,0.27396 3.87453,10.69871 7.59833,24.1381 8.28724,29.92995 l 1.23281,10.5474 6.84896,-6.64349 c 10.05504,-9.74573 21.13771,-29.16502 25.47813,-44.65522 l 3.83542,-13.56094 4.5888,9.86251 c 2.51426,5.42437 4.56233,11.87153 4.5888,14.38281 0.0809,7.66376 2.64883,7.77459 8.28724,0.34245 8.19993,-10.80849 15.79721,-28.14537 15.8211,-36.09402 0.0245,-8.18248 0.22743,-8.32206 8.90365,-3.83542 6.24417,3.22899 6.47411,3.17255 6.50651,-1.64375 0.0132,-2.01201 0.15758,-3.10243 0.47942,-3.35599 z"
       id="path3038"
       inkscape:connector-curvature="0"
       sodipodi:nodetypes="ccccccccssssssssssscccsssscssssssscscccsssscccscsccscccccccccccccscsccscscsssccccccccsscsscccsssccccsscccscccccccssscscc" />
    <path
       style="fill:#ff8080"
       d="m 442.04443,953.36518 c 4.24997,0 6.45654,-0.0175 7.73933,0.13698 0.64139,0.0776 1.04095,0.37909 1.43828,0.54792 -2.40023,5.09415 -6.3152,8.8554 -8.83516,11.43776 a 1.6439147,1.6439147 0 0 0 -0.0684,0.13698 c -0.46143,0.59462 -0.75479,0.72268 -0.95885,0.75338 -0.20405,0.0307 -0.53817,-0.0364 -1.02735,-0.34245 -0.97834,-0.61211 -2.30754,-2.23929 -3.49297,-4.17786 -1.18543,-1.93857 -2.26388,-4.13083 -3.01354,-5.89011 -0.31792,-0.74608 -0.56094,-1.39554 -0.75339,-1.9177 0.41223,-0.098 0.78412,-0.18411 1.43829,-0.27396 1.87249,-0.25715 4.58181,-0.41094 7.53385,-0.41094 z"
       id="path3034"
       inkscape:connector-curvature="0" />
    <g
       id="g4156">
      <path
         inkscape:connector-curvature="0"
         id="path3040"
         d="m 77.039576,573.8305 c -3.271611,-0.49799 -8.449183,-3.87748 -11.505726,-7.50997 -4.898003,-5.82096 -5.401056,-7.94977 -4.24013,-17.94326 0.859506,-7.39868 -0.283054,-20.06987 -3.288049,-36.46524 -6.829541,-37.2624 -5.795316,-53.56674 5.612969,-88.48608 4.117222,-12.60238 4.963468,-17.82827 3.176317,-19.61542 -5.653668,-5.65365 -2.608325,-12.739 15.337681,-35.68499 2.098061,-2.6826 -24.637932,-21.15011 -44.621793,-30.82187 -6.931147,-3.35453 -12.602086,-6.79707 -12.602086,-7.65008 0,-0.85302 3.949691,-4.67915 8.777079,-8.50253 4.827409,-3.82337 8.244679,-7.81303 7.593951,-8.86593 -0.650728,-1.0529 -4.600419,-2.55546 -8.777079,-3.33901 -4.176682,-0.78354 -7.593951,-1.98306 -7.593951,-2.66559 0,-0.68253 3.065112,-9.69558 6.811351,-20.02901 8.839913,-24.38344 27.823717,-63.82948 37.922612,-78.7986 6.74788,-10.00204 7.737286,-12.96373 6.51221,-19.49391 -1.030259,-5.49168 -0.728971,-7.25779 1.050488,-6.15801 3.579649,2.21233 3.09185,-3.66482 -0.72279,-8.70822 -4.471374,-5.91169 -4.126011,-8.08121 1.026138,-6.44599 5.378264,1.70699 5.378548,2.03186 -0.02192,-24.21119 -2.42249,-11.77342 -4.076629,-21.73408 -3.675904,-22.13481 1.552248,-1.55225 51.011156,28.11764 61.217466,36.72374 l 10.774,9.08476 26.77612,-2.80848 c 21.57168,-2.26259 32.18288,-2.27684 54.59303,-0.0733 l 27.81692,2.7352 10.43271,-9.18511 c 10.24345,-9.0185 54.04103,-35.05904 58.96684,-35.05968 1.72699,-2.2e-4 0.94832,7.2283 -2.49799,23.18914 l -5.00713,23.18948 5.32707,-1.33703 c 5.26611,-1.3217 5.28842,-1.26227 1.95008,5.19337 -3.92063,7.58166 -4.38641,12.01396 -1.04554,9.94916 1.57548,-0.97369 1.86134,1.065 0.88162,6.28735 -1.21037,6.45183 -0.30045,9.39882 5.50911,17.84273 9.05936,13.16733 30.89976,58.6714 39.26266,81.803 l 6.57272,18.17999 -5.50479,2.09293 c -3.02754,1.15111 -6.91986,2.09291 -8.64952,2.09291 -5.40233,0 -3.47787,3.75124 5.62185,10.95834 4.82166,3.81883 8.76666,7.6709 8.76666,8.56015 0,0.88924 -4.85623,3.81157 -10.79161,6.49402 -5.93539,2.68246 -19.25161,10.35744 -29.59161,17.05553 l -18.80001,12.1783 6.27882,7.99143 c 12.24721,15.58771 16.33185,27.23909 10.3535,29.5332 -2.54178,0.97538 -1.95832,4.7429 3.23602,20.89535 3.48532,10.83799 6.97926,23.72241 7.76436,28.63207 0.78507,4.90964 2.26618,8.92664 3.29133,8.92664 3.97621,0 25.29042,-23.78176 31.31831,-34.94405 3.49065,-6.46384 9.54381,-20.72418 13.45151,-31.68962 5.79345,-16.25704 8.00616,-20.07256 11.98743,-20.67064 2.68539,-0.40342 5.95226,0.33627 7.25975,1.64375 4.02723,4.02723 5.20056,2.83216 11.11475,-11.32071 7.44981,-17.82761 13.66178,-45.26452 16.74414,-73.95489 1.35897,-12.64922 2.82425,-23.35201 3.25618,-23.78397 0.43194,-0.43193 3.04107,0.79464 5.79808,2.72571 7.62788,5.34278 9.10958,4.31533 7.57911,-5.25561 l -1.40185,-8.76667 15.66121,0 c 8.61367,0 19.22752,0.92804 23.58633,2.06229 4.35881,1.13425 12.6974,3.25947 18.53019,4.72267 14.65759,3.67698 32.26434,20.02967 40.70406,37.80488 9.68081,20.38914 13.4201,37.11206 14.77771,66.08934 1.32311,28.24101 -1.32042,45.43938 -9.93441,64.63191 -3.76345,8.38521 -3.94752,10.10267 -1.24487,11.61516 11.84953,6.63135 -15.52873,52.19547 -40.44309,67.30713 -6.49994,3.9425 -8.76137,6.61412 -8.06343,9.52597 0.53349,2.22574 0.44326,5.41938 -0.20054,7.09699 -2.00257,5.21858 -38.72152,14.52089 -69.01671,17.48453 -11.50433,1.12542 -14.81898,2.2676 -15.63485,5.38749 -1.82384,6.97438 -38.21235,8.41142 -75.23967,2.9713 -8.65141,-1.27107 -9.04063,-1.0784 -9.04063,4.47535 0,7.62583 -5.90671,13.88009 -15.67022,16.59219 -7.54963,2.09714 -232.743645,2.69544 -246.155267,0.65399 z"
         style="fill:#000000" />
      <path
         sodipodi:nodetypes="ccsscccc"
         inkscape:connector-curvature="0"
         id="path3902"
         d="m 452.56836,212.8324 c 1.25413,1.3653 8.64533,-3.48926 11.50905,-4.04369 -1.11654,6.00732 0.37471,10.41079 4.38334,13.21849 3.12249,2.18707 9.67498,3.42448 18.28672,3.42448 13.28659,0 22.32649,-3.84758 29.92995,-12.80755 1.95308,-8.72299 2.75839,-12.02432 -3.15052,-18.49219 -7.20006,0.59995 12.86228,-2.4898 22.20843,6.99532 9.57169,-23.66711 -104.27632,-13.5474 -83.16697,11.70514 z"
         style="fill:#000000" />
      <path
         style="fill:#000000"
         d="m 439.86851,211.70714 c -1.25414,1.3653 -8.64534,-3.48926 -11.50906,-4.04369 1.11654,6.00732 -0.37471,10.41079 -4.38333,13.2185 -3.12249,2.18706 -9.67499,3.42448 -18.28673,3.42448 -13.28658,0 -22.32649,-3.84759 -29.92995,-12.80756 -1.95308,-8.72299 -2.75839,-12.02432 3.15052,-18.49219 7.20007,0.59995 -12.86228,-2.4898 -22.20842,6.99532 -9.57169,-23.66711 104.27632,-13.5474 83.16697,11.70514 z"
         id="path3947"
         inkscape:connector-curvature="0"
         sodipodi:nodetypes="ccsscccc" />
    </g>
    <g
       id="g4145"
       transform="translate(-103.05618,376.55144)">
      <path
         inkscape:connector-curvature="0"
         id="path3030"
         d="m 599.73356,611.4249 c -2.98111,-0.0149 -5.69289,0.24987 -7.8763,0.68489 -6.54366,1.30374 -5.81186,2.96257 -4.38333,9.52006 1.37671,6.31956 15.15154,11.85065 27.6013,10.41042 5.95783,-0.68924 11.76498,-1.84745 12.87605,-2.53412 1.11106,-0.68667 4.94833,-7.53214 0.75338,-10.27344 -3.85257,-2.51757 -8.34843,-4.28736 -12.94453,-5.54765 0.27673,3.1563 -0.53388,7.00713 -2.53411,9.72552 -2.89077,3.92865 -3.31931,3.95802 -4.58881,0.68489 -1.39409,-3.59426 -1.23919,-8.52593 -0.13698,-11.98568 -3.05931,-0.45593 -6.03525,-0.67119 -8.76667,-0.68489 z"
         style="fill:#00ffff" />
      <path
         inkscape:connector-curvature="0"
         id="path3024"
         d="m 686.74796,611.01396 c -3.13892,0.0555 -7.73908,0.51515 -12.73906,1.43828 0.21437,0.88982 0.37199,1.8924 0.47943,3.01355 0.8108,8.46108 -1.87305,12.44128 -5.75313,8.56119 -1.4145,-1.4145 -2.55184,-5.73167 -2.6026,-9.72552 -4.96268,1.4321 -9.92536,3.40511 -13.97188,6.09558 -5.81132,3.86386 1.34868,9.86725 10.68438,11.23229 11.7861,1.72335 13.86034,1.67505 20.06745,-0.6849 3.36883,-1.28083 6.89766,-3.49989 7.80781,-4.93125 4.32861,-4.72258 5.1074,-3.1556 0.34245,-14.51979 -0.13691,-0.32654 -1.73506,-0.52506 -4.31485,-0.47943 z"
         style="fill:#00ffff" />
    </g>
    <g
       id="g4149"
       transform="translate(-144.67503,-71.346588)">
      <path
         sodipodi:nodetypes="csccc"
         style="fill:#634738;fill-opacity:1;stroke:none"
         d="m 603.32919,770.90462 c 19.48686,36.74656 13.08404,68.51793 -17.46485,103.55627 -6.35687,7.29106 -14.17544,18.28722 -23.49193,24.3138 -27.5575,-4.25084 -45.33832,-4.62382 -51.09324,-45.95651 13.73016,-45.29289 47.64364,-44.27966 92.05002,-81.91356 z"
         id="path3848"
         inkscape:connector-curvature="0" />
      <path
         sodipodi:nodetypes="csccc"
         inkscape:connector-curvature="0"
         id="path3893"
         d="m 630.86929,760.99539 c -19.48688,36.74657 -13.08406,68.51794 17.46484,103.55627 6.35687,7.29106 14.17544,18.28723 23.49193,24.31381 27.5575,-4.25085 45.33832,-4.62383 51.09324,-45.95652 -13.73016,-45.29288 -47.64364,-44.27965 -92.05001,-81.91356 z"
         style="fill:#634738;fill-opacity:1;stroke:none" />
      <path
         inkscape:connector-curvature="0"
         id="path2996"
         d="m 729.68018,996.60101 c 7.71184,-0.0278 8.16918,-0.39385 6.88532,-5.50909 l -1.37518,-5.47917 17.57813,0 c 17.39099,0 44.51629,-4.14773 59.5216,-9.10144 l 7.75465,-2.56007 -7.59247,-2.55715 -7.59246,-2.55714 16.86466,-8.11158 c 19.1719,-9.22131 35.44647,-24.09756 45.45614,-41.55053 3.58537,-6.25144 6.52808,-12.10595 6.53941,-13.01002 0.0399,-3.19589 -5.6369,-1.57581 -13.71653,3.91443 -10.17266,6.91252 -10.48379,3.50077 -0.77302,-8.47682 17.30065,-21.33925 24.31133,-43.87696 23.97594,-77.0772 -0.49766,-49.26491 -19.17301,-90.55208 -45.03762,-99.56853 l -6.25094,-2.17909 4.1145,5.94463 c 8.01717,11.58318 7.54431,12.41262 -1.97311,3.46102 -12.11694,-11.39661 -15.97225,-13.33579 -30.28906,-15.23498 l -11.55357,-1.53263 1.39741,16.2006 c 1.38439,16.04967 -1.11622,27.1784 -4.03823,17.97193 -0.74837,-2.35788 -4.22409,-7.03038 -7.72386,-10.38337 l -6.36317,-6.09632 -1.4796,12.83337 c -4.57129,39.64974 -14.41709,73.60642 -27.51388,94.89143 l -7.27333,11.82069 -2.32613,-6.90862 c -1.27936,-3.79973 -3.10993,-7.16995 -4.06795,-7.48938 -0.95802,-0.31942 -3.99679,5.87248 -6.75281,13.75974 -11.00618,31.49779 -31.05706,59.88901 -49.69261,70.36279 -7.4621,4.19393 -8.65831,6.00063 -9.8177,14.82795 -0.72615,5.52867 -2.7349,17.30792 -4.4639,26.17613 -1.72901,8.86821 -3.14364,18.8754 -3.14364,22.23823 0,6.00243 0.33048,6.15821 18.08125,8.52276 24.61216,3.27853 34.81483,4.1017 39.99792,3.22705 2.41084,-0.40684 8.10056,-0.75317 12.64384,-0.76962 z"
         style="fill:#634738;fill-opacity:1" />
      <path
         sodipodi:nodetypes="cssccccsscsc"
         inkscape:connector-curvature="0"
         id="path3816"
         d="m 565.09034,769.57809 c 0.62048,-0.25202 44.85616,-18.26238 57.46276,-22.46459 3.17376,-1.05792 5.99746,-2.30755 8.35574,-3.62995 2.35827,-1.32239 4.22526,-2.69881 5.54765,-4.10937 0.3025,-0.32266 0.23822,-0.63725 0.47943,-0.95886 l -12.39662,1.11097 -6.93835,-6.77469 c -6.39812,-6.76737 -44.72605,-33.0329 -48.05879,-33.0329 -0.73359,0 0.0809,6.65719 1.78073,14.79375 3.26289,15.61846 2.54343,33.89924 -1.36979,35.20366 -1.61256,0.5375 -1.57986,1.97668 0.13698,4.72578 1.68412,2.69673 1.1e-4,6.84749 -4.99974,15.1362 z"
         style="fill:#634738;fill-opacity:1" />
      <path
         inkscape:connector-curvature="0"
         id="path3042"
         d="m 671.04074,743.56424 c -0.0905,0.0494 -0.18366,0.15755 -0.27395,0.20546 -2.28179,1.20925 -4.48663,1.90665 -6.43803,2.32865 -3.90279,0.84401 -6.71198,0.47943 -6.71198,0.47943 3.60874,1.66716 6.9816,3.55781 10.20495,5.61614 3.22335,2.05834 6.29327,4.32241 9.17761,6.6435 5.76866,4.64217 10.92493,9.66568 15.61563,14.58827 4.69069,4.9226 8.89247,9.72778 12.87604,13.90339 3.98357,4.17561 7.72199,7.73523 11.36927,10.13646 3.84644,2.53234 7.43495,4.58526 10.68438,6.16407 3.24943,1.57881 6.14695,2.67063 8.76667,3.2875 2.61972,0.61686 4.96016,0.76443 6.91745,0.41093 1.95731,-0.35349 3.53209,-1.2018 4.79427,-2.53411 1.26218,-1.33231 2.20523,-3.15964 2.73958,-5.47917 0.0695,-0.30181 0.011,-0.77721 0.0684,-1.09583 -5.08306,-9.80416 -9.8367,-18.52005 -12.67057,-22.46459 -5.54146,-7.71331 -7.36832,-12.45697 -7.19141,-18.69765 0.13019,-4.59569 -0.70804,-8.7059 -1.91771,-9.10912 -2.21187,-0.7373 -0.96784,-19.09604 2.46563,-36.64193 l 1.64375,-8.62969 -10.68438,6.23256 c -17.61129,10.20988 -30.01129,19.03054 -38.49115,27.53281 l -8.01328,8.08177 -4.93126,-0.95885 z"
         style="fill:#634738;fill-opacity:1" />
    </g>
  </g>
</svg>
